<?xml version="1.0" ?><!DOCTYPE svg  PUBLIC '-//W3C//DTD SVG 1.1//EN'  'http://www.w3.org/Graphics/SVG/1.1/DTD/svg11.dtd'><svg enable-background="new 0 0 48 48" height="48px" id="Layer_4" version="1.1" viewBox="0 0 48 48" width="48px" xml:space="preserve" xmlns="http://www.w3.org/2000/svg" xmlns:xlink="http://www.w3.org/1999/xlink"><path d="M34.252,30.717l-0.707,0.707l-1.791-1.791c0.789-0.932,1.472-1.953,2.061-3.032  c0.01-0.017,0.019-0.034,0.028-0.052c0.268-0.495,0.512-1.003,0.733-1.523c0.006-0.013,0.011-0.024,0.016-0.037  c0.908-2.148,1.427-4.5,1.427-6.979C36.019,8.063,27.955,0,18.009,0c-0.001,0-0.003,0-0.004,0C18.003,0,18.001,0,18,0  C8.059,0,0,8.059,0,18c0,0.001,0,0.003,0,0.005c0,0.001,0,0.003,0,0.004c0,9.946,8.063,18.009,18.009,18.009  c2.479,0,4.832-0.519,6.979-1.427c0.012-0.005,0.024-0.01,0.037-0.016c0.521-0.221,1.028-0.466,1.522-0.733  c0.018-0.01,0.036-0.019,0.054-0.028c1.079-0.589,2.1-1.271,3.031-2.061l1.791,1.791l-0.707,0.708l13.746,13.746L48,44.465  L34.252,30.717z M32,18.417c0,7.732-6.268,14-14,14c-7.732,0-14-6.268-14-14c0-7.732,6.268-14,14-14  C25.732,4.417,32,10.685,32,18.417z" fill="#241F20"/></svg>